<?xml version="1.0" encoding="utf-8" standalone="no"?>
<!DOCTYPE svg PUBLIC "-//W3C//DTD SVG 1.1//EN"
  "http://www.w3.org/Graphics/SVG/1.1/DTD/svg11.dtd">
<svg xmlns:xlink="http://www.w3.org/1999/xlink" width="403.5888pt" height="399.96pt" viewBox="0 0 403.5888 399.96" xmlns="http://www.w3.org/2000/svg" version="1.1">
 <metadata>
  <rdf:RDF xmlns:dc="http://purl.org/dc/elements/1.1/" xmlns:cc="http://creativecommons.org/ns#" xmlns:rdf="http://www.w3.org/1999/02/22-rdf-syntax-ns#">
   <cc:Work>
    <dc:type rdf:resource="http://purl.org/dc/dcmitype/StillImage"/>
    <dc:date>2026-09-29T02:06:54.974591</dc:date>
    <dc:format>image/svg+xml</dc:format>
    <dc:creator>
     <cc:Agent>
      <dc:title>Matplotlib v3.11.2, https://matplotlib.org/</dc:title>
     </cc:Agent>
    </dc:creator>
   </cc:Work>
  </rdf:RDF>
 </metadata>
 <defs>
  <style type="text/css">*{stroke-linejoin: round; stroke-linecap: butt}</style>
 </defs>
 <g id="figure_1">
  <g id="patch_1">
   <path d="M 0 399.96 
L 403.5888 399.96 
L 403.5888 0 
L 0 0 
z
" style="fill: #ffffff"/>
  </g>
  <g id="axes_1">
   <g id="patch_2">
    <path d="M 330.227644 161.554393 
C 319.901034 141.287279 304.922272 123.749402 286.520117 110.379454 
C 268.117963 97.009506 246.809759 88.183359 224.34349 84.625052 
C 201.87722 81.066744 178.884485 82.876312 157.251454 89.90531 
C 135.618424 96.934307 115.953273 108.985127 99.8692 125.0692 
L 122.292744 147.492744 
C 134.838321 134.947167 150.177139 125.547528 167.050902 120.064909 
C 183.924666 114.582291 201.859 113.170829 219.38269 115.946308 
C 236.90638 118.721788 253.526779 125.606183 267.88046 136.034742 
C 282.23414 146.463302 293.917574 160.142846 301.972331 175.951195 
z
" clip-path="url(#p41f87bfe88)" style="fill: #70ad47; stroke: #ffffff; stroke-width: 1.5; stroke-linejoin: miter"/>
   </g>
   <g id="patch_3">
    <path d="M 286.520117 343.609346 
C 314.279555 323.440934 333.945584 294.008641 341.95569 260.644149 
C 349.965796 227.279656 345.805217 192.127101 330.227644 161.554393 
L 301.972331 175.951195 
C 314.122837 199.797906 317.368089 227.216899 311.120206 253.241204 
C 304.872323 279.265508 289.532821 302.222697 267.88046 317.954058 
z
" clip-path="url(#p41f87bfe88)" style="fill: #ffc000; stroke: #ffffff; stroke-width: 1.5; stroke-linejoin: miter"/>
   </g>
   <g id="patch_4">
    <path d="M 99.8692 328.9196 
C 124.131838 353.182238 156.278215 368.00192 190.484992 370.694052 
C 224.691769 373.386184 258.76068 363.777757 286.520117 343.609346 
L 267.88046 317.954058 
C 246.228099 333.685419 219.654348 341.179991 192.973062 339.080129 
C 166.291776 336.980266 141.217602 325.420913 122.292744 306.496056 
z
" clip-path="url(#p41f87bfe88)" style="fill: #c00000; stroke: #ffffff; stroke-width: 1.5; stroke-linejoin: miter"/>
   </g>
   <g id="line2d_1">
    <path d="M 126.369752 151.569752 
L 132.485264 157.685264 
" clip-path="url(#p41f87bfe88)" style="fill: none; stroke: #555555; stroke-width: 1.2; stroke-linecap: square"/>
   </g>
   <g id="line2d_2">
    <path d="M 168.83262 125.548473 
L 171.505197 133.773818 
" clip-path="url(#p41f87bfe88)" style="fill: none; stroke: #555555; stroke-width: 1.2; stroke-linecap: square"/>
   </g>
   <g id="line2d_3">
    <path d="M 218.480726 121.641082 
L 217.127781 130.183243 
" clip-path="url(#p41f87bfe88)" style="fill: none; stroke: #555555; stroke-width: 1.2; stroke-linecap: square"/>
   </g>
   <g id="line2d_4">
    <path d="M 264.491431 140.69934 
L 259.407888 147.696237 
" clip-path="url(#p41f87bfe88)" style="fill: none; stroke: #555555; stroke-width: 1.2; stroke-linecap: square"/>
   </g>
   <g id="line2d_5">
    <path d="M 296.835001 178.568795 
L 289.129006 182.495196 
" clip-path="url(#p41f87bfe88)" style="fill: none; stroke: #555555; stroke-width: 1.2; stroke-linecap: square"/>
   </g>
   <g id="line2d_6">
    <path d="M 308.46096 226.9944 
L 299.81232 226.9944 
" clip-path="url(#p41f87bfe88)" style="fill: none; stroke: #555555; stroke-width: 1.2; stroke-linecap: square"/>
   </g>
   <g id="line2d_7">
    <path d="M 296.835001 275.420005 
L 289.129006 271.493604 
" clip-path="url(#p41f87bfe88)" style="fill: none; stroke: #555555; stroke-width: 1.2; stroke-linecap: square"/>
   </g>
   <g id="line2d_8">
    <path d="M 264.491431 313.28946 
L 259.407888 306.292563 
" clip-path="url(#p41f87bfe88)" style="fill: none; stroke: #555555; stroke-width: 1.2; stroke-linecap: square"/>
   </g>
   <g id="line2d_9">
    <path d="M 218.480726 332.347718 
L 217.127781 323.805557 
" clip-path="url(#p41f87bfe88)" style="fill: none; stroke: #555555; stroke-width: 1.2; stroke-linecap: square"/>
   </g>
   <g id="line2d_10">
    <path d="M 168.83262 328.440327 
L 171.505197 320.214982 
" clip-path="url(#p41f87bfe88)" style="fill: none; stroke: #555555; stroke-width: 1.2; stroke-linecap: square"/>
   </g>
   <g id="line2d_11">
    <path d="M 126.369752 302.419048 
L 132.485264 296.303536 
" clip-path="url(#p41f87bfe88)" style="fill: none; stroke: #555555; stroke-width: 1.2; stroke-linecap: square"/>
   </g>
   <g id="text_1">
    <text style="font-size: 10px; font-family: 'Microsoft YaHei', 'PingFang SC', 'Noto Sans CJK SC', 'Noto Sans CJK JP', 'WenQuanYi Zen Hei', 'SimHei', 'Arial Unicode MS', sans-serif; text-anchor: middle; fill: #555555" x="89.67668" y="118.67668" transform="rotate(-0 89.67668 118.67668)">50</text>
   </g>
   <g id="text_2">
    <text style="font-size: 10px; font-family: 'Microsoft YaHei', 'PingFang SC', 'Noto Sans CJK SC', 'Noto Sans CJK JP', 'WenQuanYi Zen Hei', 'SimHei', 'Arial Unicode MS', sans-serif; text-anchor: middle; fill: #555555" x="152.79716" y="79.9964" transform="rotate(-0 152.79716 79.9964)">60</text>
   </g>
   <g id="text_3">
    <text style="font-size: 10px; font-family: 'Microsoft YaHei', 'PingFang SC', 'Noto Sans CJK SC', 'Noto Sans CJK JP', 'WenQuanYi Zen Hei', 'SimHei', 'Arial Unicode MS', sans-serif; text-anchor: middle; fill: #555555" x="226.598398" y="74.188117" transform="rotate(-0 226.598398 74.188117)">70</text>
   </g>
   <g id="text_4">
    <text style="font-size: 10px; font-family: 'Microsoft YaHei', 'PingFang SC', 'Noto Sans CJK SC', 'Noto Sans CJK JP', 'WenQuanYi Zen Hei', 'SimHei', 'Arial Unicode MS', sans-serif; text-anchor: middle; fill: #555555" x="294.992689" y="102.51796" transform="rotate(-0 294.992689 102.51796)">80</text>
   </g>
   <g id="text_5">
    <text style="font-size: 10px; font-family: 'Microsoft YaHei', 'PingFang SC', 'Noto Sans CJK SC', 'Noto Sans CJK JP', 'WenQuanYi Zen Hei', 'SimHei', 'Arial Unicode MS', sans-serif; text-anchor: middle; fill: #555555" x="343.070969" y="158.810393" transform="rotate(-0 343.070969 158.810393)">90</text>
   </g>
   <g id="text_6">
    <text style="font-size: 10px; font-family: 'Microsoft YaHei', 'PingFang SC', 'Noto Sans CJK SC', 'Noto Sans CJK JP', 'WenQuanYi Zen Hei', 'SimHei', 'Arial Unicode MS', sans-serif; text-anchor: middle; fill: #555555" x="360.3528" y="230.7944" transform="rotate(-0 360.3528 230.7944)">100</text>
   </g>
   <g id="text_7">
    <text style="font-size: 10px; font-family: 'Microsoft YaHei', 'PingFang SC', 'Noto Sans CJK SC', 'Noto Sans CJK JP', 'WenQuanYi Zen Hei', 'SimHei', 'Arial Unicode MS', sans-serif; text-anchor: middle; fill: #555555" x="343.070969" y="302.778407" transform="rotate(-0 343.070969 302.778407)">110</text>
   </g>
   <g id="text_8">
    <text style="font-size: 10px; font-family: 'Microsoft YaHei', 'PingFang SC', 'Noto Sans CJK SC', 'Noto Sans CJK JP', 'WenQuanYi Zen Hei', 'SimHei', 'Arial Unicode MS', sans-serif; text-anchor: middle; fill: #555555" x="294.992689" y="359.07084" transform="rotate(-0 294.992689 359.07084)">120</text>
   </g>
   <g id="text_9">
    <text style="font-size: 10px; font-family: 'Microsoft YaHei', 'PingFang SC', 'Noto Sans CJK SC', 'Noto Sans CJK JP', 'WenQuanYi Zen Hei', 'SimHei', 'Arial Unicode MS', sans-serif; text-anchor: middle; fill: #555555" x="226.598398" y="387.400683" transform="rotate(-0 226.598398 387.400683)">130</text>
   </g>
   <g id="text_10">
    <text style="font-size: 10px; font-family: 'Microsoft YaHei', 'PingFang SC', 'Noto Sans CJK SC', 'Noto Sans CJK JP', 'WenQuanYi Zen Hei', 'SimHei', 'Arial Unicode MS', sans-serif; text-anchor: middle; fill: #555555" x="152.79716" y="381.5924" transform="rotate(-0 152.79716 381.5924)">140</text>
   </g>
   <g id="text_11">
    <text style="font-size: 10px; font-family: 'Microsoft YaHei', 'PingFang SC', 'Noto Sans CJK SC', 'Noto Sans CJK JP', 'WenQuanYi Zen Hei', 'SimHei', 'Arial Unicode MS', sans-serif; text-anchor: middle; fill: #555555" x="89.67668" y="342.91212" transform="rotate(-0 89.67668 342.91212)">150</text>
   </g>
   <g id="text_12">
    <text style="font-weight: 700; font-size: 30px; font-family: 'Microsoft YaHei', 'PingFang SC', 'Noto Sans CJK SC', 'Noto Sans CJK JP', 'WenQuanYi Zen Hei', 'SimHei', 'Arial Unicode MS', sans-serif; text-anchor: middle; fill: #2e75b6" x="201.7944" y="288.8448" transform="rotate(-0 201.7944 288.8448)">76</text>
   </g>
   <g id="text_13">
    <text style="font-size: 12px; font-family: 'Microsoft YaHei', 'PingFang SC', 'Noto Sans CJK SC', 'Noto Sans CJK JP', 'WenQuanYi Zen Hei', 'SimHei', 'Arial Unicode MS', sans-serif; text-anchor: middle; fill: #888888" x="201.7944" y="310.8336" transform="rotate(-0 201.7944 310.8336)">当前指标值</text>
   </g>
   <g id="text_14">
    <text style="font-size: 15px; font-family: 'Microsoft YaHei', 'PingFang SC', 'Noto Sans CJK SC', 'Noto Sans CJK JP', 'WenQuanYi Zen Hei', 'SimHei', 'Arial Unicode MS', sans-serif; text-anchor: middle" x="201.7944" y="20.4" transform="rotate(-0 201.7944 20.4)">指标仪表盘</text>
   </g>
   <g id="line2d_12">
    <path d="M 201.7944 226.9944 
L 239.845989 146.130658 
" clip-path="url(#p41f87bfe88)" style="fill: none; stroke: #333333; stroke-width: 3.5; stroke-linecap: round"/>
   </g>
   <g id="patch_5">
    <path d="M 201.7944 234.2016 
C 203.705772 234.2016 205.539116 233.442204 206.89066 232.09066 
C 208.242204 230.739116 209.0016 228.905772 209.0016 226.9944 
C 209.0016 225.083028 208.242204 223.249684 206.89066 221.89814 
C 205.539116 220.546596 203.705772 219.7872 201.7944 219.7872 
C 199.883028 219.7872 198.049684 220.546596 196.69814 221.89814 
C 195.346596 223.249684 194.5872 225.083028 194.5872 226.9944 
C 194.5872 228.905772 195.346596 230.739116 196.69814 232.09066 
C 198.049684 233.442204 199.883028 234.2016 201.7944 234.2016 
z
" clip-path="url(#p41f87bfe88)" style="fill: #333333; stroke: #333333; stroke-linejoin: miter"/>
   </g>
  </g>
 </g>
 <defs>
  <clipPath id="p41f87bfe88">
   <rect x="7.2" y="32.4" width="389.1888" height="360.36"/>
  </clipPath>
 </defs>
</svg>
